<?xml version="1.0" encoding="UTF-8"?>
<svg xmlns="http://www.w3.org/2000/svg" xmlns:xlink="http://www.w3.org/1999/xlink" width="170px" height="24px" viewBox="0 0 170 24">
  <!-- Generator: Sketch 59.1 (86144) - https://sketch.com -->
  <title>Logo</title>
  <desc>Created with Sketch.</desc>
  <defs>
    <polygon id="path-1" points="0.563307143 0.400714286 16.2700929 0.400714286 16.2700929 16.1079857 0.563307143 16.1079857"></polygon>
    <polygon id="path-3" points="0.242978571 0.304421429 25.2188929 0.304421429 25.2188929 21.5075638 0.242978571 21.5075638"></polygon>
  </defs>
  <g id="Symbols" stroke="none" stroke-width="1" fill="none" fill-rule="evenodd">
    <g id="Navigation-/-Header-/-Desktop-/-White" transform="translate(-359.000000, -21.000000)">
      <g id="Logo" transform="translate(359.000000, 21.000000)">
        <path d="M136.016332,1.11866071 L136.016332,1.91948214 L136.287725,1.91948214 C137.881475,1.91948214 139.235404,2.24855357 139.235404,4.40391071 L139.235404,14.872875 L128.575189,1.11866071 L122.388404,1.11866071 L122.388404,1.91948214 L122.633689,1.91948214 C124.154582,1.91948214 125.790832,2.50416071 125.790832,4.77244643 L125.790832,17.0865179 C125.790832,19.4209821 124.033154,19.8799821 122.605761,19.8599464 L122.481296,19.8599464 L122.481296,20.6607679 L130.186546,20.6607679 L130.186546,19.8599464 L129.884189,19.8599464 C128.280118,19.8599464 126.877618,19.4653036 126.877618,17.3299821 L126.877618,5.03230357 L138.990725,20.661375 L139.235404,20.661375 L139.235404,20.665625 L139.378082,20.665625 L140.179511,20.665625 L140.321582,20.665625 L140.321582,20.5223393 L140.321582,4.53505357 C140.321582,2.37969643 141.776904,1.91948214 143.415582,1.91948214 L143.606832,1.91948214 L143.606832,1.11866071 L136.016332,1.11866071 Z" id="Fill-1" fill="#000000"></path>
        <path d="M95.4213643,10.5702964 C95.4213643,10.5702964 99.6197571,9.36390357 99.6197571,6.084725 C99.6197571,1.39393929 94.2932929,1.11890357 92.2508643,1.11890357 L81.3411143,1.11890357 L81.3411143,1.919725 L82.5317214,1.919725 C84.1115071,1.93126071 84.8752929,2.58090357 84.8825786,4.59601071 L84.8837929,16.879725 C84.8789357,18.8183321 84.4314714,19.8595821 82.1304,19.8595821 L81.3411143,19.8595821 L81.3411143,20.6616179 L91.7833643,20.6616179 C94.1506143,20.6616179 100.100007,20.360475 100.100007,15.4553679 C100.100007,11.2405821 95.4213643,10.5702964 95.4213643,10.5702964 M90.2363643,1.919725 L91.5532571,1.919725 C93.2605429,1.919725 95.6945786,2.31983214 95.6945786,6.084725 C95.6945786,8.07858214 94.8852571,10.1367964 92.13065,10.1367964 L88.5673286,10.1367964 L88.5673286,3.36958214 C88.5673286,1.919725 88.5673286,1.919725 90.2363643,1.919725 M91.6510071,19.8601893 L90.6273643,19.8601893 C89.1143643,19.8601893 88.5673286,19.3325821 88.5673286,17.7673679 L88.5673286,11.1665107 L92.5690071,11.1665107 C95.4092214,11.1665107 95.9362214,13.2113679 95.9362214,15.4553679 C95.9362214,19.0126179 93.6527571,19.8601893 91.6510071,19.8601893" id="Fill-3" fill="#000000"></path>
        <g id="Group-7" transform="translate(22.464286, 0.206671)">
          <mask id="mask-2" fill="white">
            <use xlink:href="#path-1"></use>
          </mask>
          <g id="Clip-6"></g>
          <path d="M8.41609286,0.400592857 C4.07866429,0.400592857 0.563307143,3.91716429 0.563307143,8.25398571 C0.563307143,12.5908071 4.07866429,16.1079857 8.41609286,16.1079857 C12.7547357,16.1079857 16.2700929,12.5908071 16.2700929,8.25398571 C16.2700929,3.91716429 12.7547357,0.400592857 8.41609286,0.400592857 M8.41427143,15.2446286 C6.87030714,15.2446286 4.29966429,14.6745214 4.29966429,8.25398571 C4.29966429,1.83345 6.88852143,1.26334286 8.41427143,1.26334286 C9.94062857,1.26334286 12.5325214,1.80795 12.5325214,8.25398571 C12.5325214,14.7000214 9.95823571,15.2446286 8.41427143,15.2446286" id="Fill-5" fill="#000000" mask="url(#mask-2)"></path>
        </g>
        <path d="M121.259907,19.8594607 C120.049871,19.8594607 119.2278,19.2304607 118.761514,18.0094964 L117.196907,13.9222107 C117.66805,13.9167464 118.153157,13.838425 118.608514,13.6538536 C119.165871,13.4279964 119.5848,13.0005679 119.854979,12.7467821 L119.41905,12.282925 C119.1598,12.4480679 118.578157,12.6891036 117.955836,12.7917107 C117.543586,12.8591036 116.781014,12.8384607 116.781014,12.8384607 L112.294836,1.11938929 L111.024693,1.11938929 L104.9733,15.9324607 C103.737157,19.0483179 102.577514,19.8594607 101.266086,19.8594607 L101.008657,19.8594607 L101.008657,20.6602821 L108.055764,20.6602821 L108.055764,19.8594607 L107.503264,19.8594607 C106.132943,19.8594607 104.524014,19.371925 105.696407,16.4485321 L106.748586,13.9246393 L113.109014,13.9246393 L114.520014,17.7684607 C115.105907,19.3670679 114.932871,19.8594607 113.429586,19.8594607 L112.350086,19.8594607 L112.350086,20.6602821 L121.418371,20.6602821 L121.418371,19.8594607 L121.259907,19.8594607 Z M112.710729,12.8384607 L107.200907,12.8384607 L110.130371,5.80713929 L112.710729,12.8384607 Z" id="Fill-8" fill="#000000"></path>
        <path d="M50.8573821,8.891425 C50.1458107,8.68013929 44.8248107,7.90603214 44.8248107,4.56735357 C44.8248107,1.87224643 48.0244536,0.807925 50.6564179,2.33428214 C53.2980964,3.86671071 54.6763107,6.73181786 54.6763107,6.73181786 L55.4273464,6.73181786 L54.919775,0.644603571 L54.1893821,0.644603571 C54.1893821,0.644603571 53.7516321,1.77935357 52.5221679,1.77935357 C51.2933107,1.77935357 49.6649536,0.225067857 46.7822393,0.785460714 C43.899525,1.34585357 42.7635607,4.32813929 42.7635607,6.12710357 C42.7635607,7.92606786 43.3379179,9.05110357 44.3822036,10.1299964 C45.3924893,11.2647464 48.5059179,12.3345321 49.7529893,12.792925 C50.9994536,13.251925 53.6951679,14.1116393 53.6951679,16.8231393 C53.6951679,19.533425 51.2763107,20.1423893 50.2927393,20.1423893 C49.3091679,20.1423893 47.9770964,20.0282464 46.1338107,18.5504607 C44.2024893,17.0022464 43.3591679,14.1025321 43.3591679,14.1025321 L42.5978107,14.1007107 L42.5978107,21.148425 L43.3221321,21.148425 C43.3221321,21.148425 43.8388107,20.2407464 44.8375607,20.0494964 C46.4124893,19.7477464 47.9321679,21.148425 50.3400964,21.135675 C52.3509536,21.1235321 56.2664179,19.6074964 56.2664179,15.1213179 C56.2664179,10.6357464 51.8081679,9.17435357 50.8573821,8.891425" id="Fill-10" fill="#000000"></path>
        <path d="M71.58445,19.8603107 L68.1765571,19.8603107 C67.0065929,19.8603107 66.6726643,19.5864893 66.6908786,18.2914536 L66.6908786,11.0500607 L67.2063429,11.0500607 C69.87595,11.0500607 71.6573071,12.432525 71.6573071,15.4421321 L71.6573071,16.2605607 L72.4581286,16.2605607 L72.4581286,5.44370357 L71.6573071,5.44370357 L71.6573071,5.93306071 C71.6573071,8.641525 69.9160214,10.2492393 67.2063429,10.2492393 L66.6908786,10.2492393 L66.6908786,3.35209643 C66.6908786,2.23070357 67.1262,1.91984643 68.0332714,1.91984643 L71.3792357,1.91984643 C74.9741286,1.91984643 75.2594857,4.06306071 76.5071643,7.685275 L77.2758071,7.68588214 L76.7712714,1.11841786 L60.3092,1.11841786 L59.4652714,1.11841786 L59.4652714,1.91863214 L59.4652714,1.91984643 L60.6564857,1.91984643 C62.2435571,1.930775 63.00795,2.58709643 63.00795,4.62466786 L63.00795,16.8494893 C63.00795,18.807525 62.5677714,19.8597036 60.2557714,19.8597036 L59.4652714,19.8597036 L59.4652714,19.8603107 L59.4652714,20.660525 L59.4652714,20.6611321 L77.7335929,20.6611321 L78.2350929,13.1325607 L77.4737357,13.1325607 C75.9479857,16.9964179 75.5618429,19.8603107 71.58445,19.8603107" id="Fill-12" fill="#000000"></path>
        <g id="Group-16" transform="translate(144.500000, 0.813814)">
          <mask id="mask-4" fill="white">
            <use xlink:href="#path-3"></use>
          </mask>
          <g id="Clip-15"></g>
          <path d="M19.0820143,17.1836 C17.1434071,15.3670286 12.4647643,9.6356 11.2189071,7.98538571 L15.2503357,4.22170714 C17.5435143,2.08152857 19.0783714,1.10645714 21.2816929,1.10645714 L21.2816929,0.304421429 L11.6694071,0.304421429 L11.6694071,1.10645714 L12.1454071,1.10645714 C14.8156214,1.10645714 14.7779786,3.20474286 13.5964786,4.30731429 L6.70176429,10.7436357 L6.70176429,3.8811 C6.70176429,1.62252857 7.0363,1.10645714 9.37319286,1.10645714 L9.37319286,0.304421429 L0.242978571,0.304421429 L0.242978571,1.10585 L0.242978571,1.10645714 L0.664942857,1.10645714 C2.39833571,1.10645714 3.00972857,1.76763571 3.01762143,3.78395714 L3.01762143,16.0421714 L3.01640714,16.0421714 C3.01640714,17.9850286 2.5823,19.0353857 0.316442857,19.0517786 L0.242978571,19.0536 L0.242978571,19.8538143 L4.25983571,19.8538143 L9.5863,19.8538143 L9.5863,19.0529929 L9.32947857,19.0529929 C6.97437143,19.0511714 6.71147857,18.0263143 6.70176429,16.1192786 L6.70176429,12.2001714 L8.32222857,10.6877786 C9.47701429,12.1789214 13.5491214,16.6341357 14.6935857,17.7609929 C18.3145857,21.3255286 21.6678357,22.0577429 25.2190143,21.1567429 L25.2190143,20.4888857 C22.1140857,20.0323143 20.5834786,18.5897429 19.0820143,17.1836" id="Fill-14" fill="#000000" mask="url(#mask-4)"></path>
        </g>
        <path d="M37.7528714,18.6300571 C37.7528714,18.6300571 34.3978,21.5492 29.2656214,21.0428429 C24.7102286,20.5935571 20.6812286,17.6470929 18.0013,14.3357357 C17.0134786,13.1153786 16.0238357,12.0134143 14.4816929,11.5088786 C13.8642286,11.3067 13.2176214,11.1670571 12.5704071,11.1166643 C12.5704071,11.1166643 18.4153714,10.5465571 18.4153714,6.32387857 C18.4153714,0.937307143 10.8661571,1.12066429 10.8661571,1.12066429 L0.000121428571,1.11823571 L0.000121428571,1.91845 L0.81855,1.91845 C2.43597857,1.91845 3.21190714,2.5687 3.21190714,4.62448571 L3.21190714,16.8499143 C3.21190714,18.80795 2.77355,19.8589143 0.459728571,19.8589143 L0.000121428571,19.8589143 L0.000121428571,20.6603429 L10.42355,20.6603429 L10.42355,19.8589143 L9.65065714,19.8589143 C7.25790714,19.8589143 6.89726429,18.80795 6.89726429,16.8499143 L6.89726429,11.8154857 C9.58933571,11.8154857 11.2079786,12.3795214 12.42105,13.5567714 C14.3171571,15.3958071 15.8028357,17.65195 17.8476929,19.3161286 C21.6204786,22.3858429 26.7641929,24.0390929 31.5855143,22.9347 C33.9837286,22.3858429 36.6090143,21.1363429 38.2319071,19.2117 L37.7528714,18.6300571 Z M6.89726429,3.2232 C6.89726429,2.03502143 7.40544286,1.91845 8.41937143,1.91845 L10.1145143,1.91845 C12.0094071,1.91845 14.3560143,2.72898571 14.3560143,6.32387857 C14.3560143,10.3364857 11.6226571,10.7287 9.90019286,10.7287 L6.89726429,10.7287 L6.89726429,3.2232 Z" id="Fill-17" fill="#000000"></path>
      </g>
    </g>
  </g>
</svg>
